<?xml version="1.0" encoding="utf-8"?>
<svg viewBox="0 0 155 115" xmlns="http://www.w3.org/2000/svg">
  <path d="M 3.267 10.074 C 2.187 10.074 1.307 10.959 1.307 12.031 L 1.307 103.945 C 1.307 104.986 2.187 105.881 3.247 105.881 L 23.26 105.776 L 23.167 104.039 L 3.267 104.164 C 3.117 104.164 3.017 104.06 3.017 103.924 L 3.017 12.021 C 3.017 11.875 3.117 11.792 3.257 11.792 L 152.057 11.792 C 152.207 11.792 152.297 11.875 152.297 12.031 L 152.297 103.945 C 152.297 104.08 152.197 104.174 152.057 104.174 L 128.802 104.255 L 128.803 106.077 L 152.057 105.881 C 153.127 105.881 154.007 104.986 154.007 103.924 L 154.007 12.021 C 154.007 10.959 153.127 10.074 152.067 10.074 L 3.267 10.074 Z" white-space="normal" style="text-decoration: none solid rgb(0, 0, 0); isolation: auto; mix-blend-mode: normal; text-indent: 0px; text-transform: none;" color="#000" solid-color="#000000"/>
  <path d="M 115.644 21.025 L 96.962 27.505 L 100.642 34.171 C 96.04 38.462 85.923 45.333 71.205 45.333 C 47.662 45.333 35.8 20.478 35.8 23.218 C 35.8 39.337 54.265 57.194 54.265 75.425 C 54.265 83.281 48.011 90.957 39.735 90.957 C 33.753 90.957 30.274 87.193 29.249 84.375 C 28.636 82.695 29.339 81.727 29.339 81.727 C 29.339 81.727 23.451 76.145 24.002 75.597 C 24.555 75.05 31.613 78.944 31.613 78.944 C 31.613 78.944 33.519 77.836 35.232 78.324 C 36.953 78.813 38.47 79.71 39.817 79.71 C 41.936 79.71 44.965 78.496 44.965 74.481 C 44.965 56.056 23.198 38.971 23.198 14.756 C 23.198 9.056 25.596 1.232 35.25 1.232 C 42.236 1.232 89.17 1.232 92.725 1.232 C 96.282 1.232 103.638 5.147 108.546 10.023 C 113.456 14.892 115.644 21.025 115.644 21.025 Z" style="" transform="matrix(-1, 0, 0, -1, 138.841988, 92.188998)"/>
  <polyline style="fill: rgb(216, 216, 216); stroke: rgb(0, 0, 0);" points="148.797 68.551"/>
  <polyline style="fill: rgb(216, 216, 216); stroke: rgb(0, 0, 0);" points="135.901 54.897"/>
  <path d="M 27.485 111.904 C 27.398 111.904 27.325 111.874 27.265 111.814 C 27.205 111.754 27.175 111.681 27.175 111.594 L 27.175 95.514 C 27.175 95.427 27.205 95.354 27.265 95.294 C 27.325 95.234 27.398 95.204 27.485 95.204 L 28.585 95.204 C 28.672 95.204 28.745 95.234 28.805 95.294 C 28.865 95.354 28.895 95.427 28.895 95.514 L 28.895 100.994 C 29.275 100.394 29.768 99.937 30.375 99.624 C 30.982 99.317 31.668 99.164 32.435 99.164 C 33.682 99.164 34.688 99.547 35.455 100.314 C 36.228 101.074 36.615 102.077 36.615 103.324 L 36.615 111.594 C 36.615 111.681 36.585 111.754 36.525 111.814 C 36.465 111.874 36.392 111.904 36.305 111.904 L 35.205 111.904 C 35.118 111.904 35.045 111.874 34.985 111.814 C 34.925 111.754 34.895 111.681 34.895 111.594 L 34.895 103.654 C 34.895 102.714 34.648 102.001 34.155 101.514 C 33.668 101.021 33.005 100.774 32.165 100.774 C 31.185 100.774 30.395 101.097 29.795 101.744 C 29.195 102.384 28.895 103.271 28.895 104.404 L 28.895 111.594 C 28.895 111.681 28.865 111.754 28.805 111.814 C 28.745 111.874 28.672 111.904 28.585 111.904 L 27.485 111.904 ZM 43.213 112.194 C 42.086 112.194 41.163 111.874 40.443 111.234 C 39.723 110.594 39.363 109.754 39.363 108.714 C 39.363 107.747 39.689 106.947 40.343 106.314 C 40.996 105.687 41.909 105.291 43.083 105.124 L 45.943 104.734 C 46.369 104.674 46.676 104.531 46.863 104.304 C 47.056 104.077 47.153 103.751 47.153 103.324 L 47.153 103.144 C 47.153 102.444 46.876 101.877 46.323 101.444 C 45.776 101.011 45.093 100.794 44.273 100.794 C 43.626 100.794 43.063 100.924 42.583 101.184 C 42.109 101.437 41.733 101.791 41.453 102.244 C 41.333 102.437 41.186 102.534 41.013 102.534 C 40.926 102.534 40.829 102.497 40.723 102.424 L 40.133 102.024 C 39.999 101.911 39.933 101.787 39.933 101.654 C 39.933 101.594 39.956 101.521 40.003 101.434 C 40.429 100.727 41.013 100.174 41.753 99.774 C 42.493 99.367 43.346 99.164 44.313 99.164 C 45.193 99.164 45.976 99.331 46.663 99.664 C 47.356 99.991 47.889 100.454 48.263 101.054 C 48.636 101.661 48.823 102.357 48.823 103.144 L 48.823 111.594 C 48.823 111.681 48.793 111.754 48.733 111.814 C 48.673 111.874 48.599 111.904 48.513 111.904 L 47.593 111.904 C 47.506 111.904 47.433 111.874 47.373 111.814 C 47.313 111.754 47.283 111.681 47.283 111.594 L 47.283 110.074 C 46.829 110.734 46.246 111.254 45.533 111.634 C 44.819 112.007 44.046 112.194 43.213 112.194 Z M 43.393 110.654 C 44.106 110.654 44.756 110.461 45.343 110.074 C 45.929 109.694 46.389 109.214 46.723 108.634 C 47.049 108.054 47.213 107.487 47.213 106.934 L 47.213 106.034 C 46.866 106.074 45.739 106.227 43.833 106.494 L 43.213 106.584 C 41.746 106.804 41.013 107.491 41.013 108.644 C 41.013 109.251 41.233 109.737 41.673 110.104 C 42.113 110.471 42.686 110.654 43.393 110.654 ZM 52.872 111.904 C 52.786 111.904 52.712 111.874 52.652 111.814 C 52.592 111.754 52.562 111.681 52.562 111.594 L 52.562 99.764 C 52.562 99.671 52.592 99.597 52.652 99.544 C 52.712 99.484 52.786 99.454 52.872 99.454 L 53.972 99.454 C 54.059 99.454 54.132 99.484 54.192 99.544 C 54.252 99.597 54.282 99.671 54.282 99.764 L 54.282 100.944 C 54.629 100.357 55.092 99.914 55.672 99.614 C 56.252 99.314 56.896 99.164 57.602 99.164 C 58.522 99.164 59.326 99.381 60.012 99.814 C 60.692 100.247 61.179 100.837 61.472 101.584 C 61.779 100.811 62.256 100.217 62.902 99.804 C 63.549 99.391 64.282 99.184 65.102 99.184 C 66.349 99.184 67.356 99.567 68.122 100.334 C 68.896 101.094 69.282 102.097 69.282 103.344 L 69.282 111.594 C 69.282 111.681 69.252 111.754 69.192 111.814 C 69.132 111.874 69.059 111.904 68.972 111.904 L 67.872 111.904 C 67.786 111.904 67.712 111.874 67.652 111.814 C 67.592 111.754 67.562 111.681 67.562 111.594 L 67.562 103.674 C 67.562 102.734 67.319 102.021 66.832 101.534 C 66.339 101.041 65.676 100.794 64.842 100.794 C 63.929 100.794 63.189 101.117 62.622 101.764 C 62.062 102.411 61.782 103.297 61.782 104.424 L 61.782 111.594 C 61.782 111.681 61.752 111.754 61.692 111.814 C 61.632 111.874 61.559 111.904 61.472 111.904 L 60.372 111.904 C 60.286 111.904 60.212 111.874 60.152 111.814 C 60.092 111.754 60.062 111.681 60.062 111.594 L 60.062 103.654 C 60.062 102.714 59.816 102.001 59.322 101.514 C 58.836 101.021 58.172 100.774 57.332 100.774 C 56.426 100.774 55.689 101.097 55.122 101.744 C 54.562 102.384 54.282 103.271 54.282 104.404 L 54.282 111.594 C 54.282 111.681 54.252 111.754 54.192 111.814 C 54.132 111.874 54.059 111.904 53.972 111.904 L 52.872 111.904 ZM 76.012 112.124 C 75.339 112.124 74.679 112.037 74.032 111.864 C 73.385 111.684 72.829 111.427 72.362 111.094 C 72.302 111.061 72.262 111.011 72.242 110.944 C 72.222 110.877 72.225 110.807 72.252 110.734 L 72.712 109.814 C 72.785 109.694 72.882 109.634 73.002 109.634 C 73.029 109.634 73.085 109.651 73.172 109.684 C 74.145 110.271 75.122 110.564 76.102 110.564 C 76.882 110.564 77.495 110.391 77.942 110.044 C 78.389 109.697 78.612 109.211 78.612 108.584 C 78.612 108.204 78.512 107.891 78.312 107.644 C 78.112 107.404 77.852 107.207 77.532 107.054 C 77.212 106.901 76.705 106.691 76.012 106.424 C 75.119 106.091 74.415 105.777 73.902 105.484 C 73.389 105.191 72.985 104.814 72.692 104.354 C 72.399 103.901 72.252 103.324 72.252 102.624 C 72.252 101.491 72.625 100.631 73.372 100.044 C 74.119 99.457 75.079 99.164 76.252 99.164 C 76.872 99.164 77.485 99.254 78.092 99.434 C 78.699 99.607 79.245 99.854 79.732 100.174 C 79.792 100.207 79.829 100.261 79.842 100.334 C 79.855 100.407 79.849 100.474 79.822 100.534 L 79.382 101.434 C 79.349 101.521 79.292 101.577 79.212 101.604 C 79.132 101.637 79.049 101.624 78.962 101.564 C 78.022 101.004 77.119 100.724 76.252 100.724 C 75.539 100.724 74.979 100.881 74.572 101.194 C 74.172 101.501 73.972 101.947 73.972 102.534 C 73.972 102.987 74.082 103.354 74.302 103.634 C 74.522 103.914 74.785 104.124 75.092 104.264 C 75.399 104.397 75.889 104.591 76.562 104.844 C 77.429 105.151 78.112 105.437 78.612 105.704 C 79.112 105.964 79.522 106.314 79.842 106.754 C 80.162 107.194 80.322 107.767 80.322 108.474 C 80.322 109.601 79.932 110.491 79.152 111.144 C 78.365 111.797 77.319 112.124 76.012 112.124 ZM 85.302 97.734 C 85.209 97.734 85.135 97.704 85.082 97.644 C 85.022 97.591 84.992 97.517 84.992 97.424 L 84.992 95.514 C 84.992 95.427 85.022 95.354 85.082 95.294 C 85.135 95.234 85.209 95.204 85.302 95.204 L 86.352 95.204 C 86.439 95.204 86.512 95.234 86.572 95.294 C 86.632 95.354 86.662 95.427 86.662 95.514 L 86.662 97.424 C 86.662 97.517 86.632 97.591 86.572 97.644 C 86.512 97.704 86.439 97.734 86.352 97.734 L 85.302 97.734 Z M 85.762 111.904 C 85.542 111.904 85.355 111.827 85.202 111.674 C 85.049 111.521 84.972 111.334 84.972 111.114 L 84.972 101.084 L 82.682 101.084 C 82.595 101.084 82.522 101.054 82.462 100.994 C 82.402 100.934 82.372 100.861 82.372 100.774 L 82.372 99.764 C 82.372 99.671 82.402 99.597 82.462 99.544 C 82.522 99.484 82.595 99.454 82.682 99.454 L 85.892 99.454 C 86.112 99.454 86.299 99.531 86.452 99.684 C 86.605 99.837 86.682 100.024 86.682 100.244 L 86.682 110.274 L 88.952 110.274 C 89.039 110.274 89.112 110.304 89.172 110.364 C 89.232 110.424 89.262 110.497 89.262 110.584 L 89.262 111.594 C 89.262 111.681 89.232 111.754 89.172 111.814 C 89.112 111.874 89.039 111.904 88.952 111.904 L 85.762 111.904 ZM 92.338 111.904 C 92.251 111.904 92.174 111.877 92.108 111.824 C 92.041 111.777 92.008 111.707 92.008 111.614 L 92.008 95.514 C 92.008 95.427 92.038 95.354 92.098 95.294 C 92.158 95.234 92.231 95.204 92.318 95.204 L 93.418 95.204 C 93.504 95.204 93.578 95.234 93.638 95.294 C 93.698 95.354 93.728 95.427 93.728 95.514 L 93.728 104.294 L 94.628 104.294 L 98.958 99.654 C 99.078 99.521 99.204 99.454 99.338 99.454 L 100.768 99.454 C 100.854 99.454 100.921 99.477 100.968 99.524 C 101.021 99.577 101.048 99.641 101.048 99.714 C 101.048 99.801 101.018 99.874 100.958 99.934 L 96.078 105.044 L 101.228 111.464 C 101.268 111.524 101.288 111.584 101.288 111.644 C 101.288 111.717 101.268 111.777 101.228 111.824 C 101.181 111.877 101.114 111.904 101.028 111.904 L 99.598 111.904 C 99.464 111.904 99.341 111.837 99.228 111.704 L 94.628 105.924 L 93.728 105.924 L 93.728 111.614 C 93.728 111.707 93.694 111.777 93.628 111.824 C 93.561 111.877 93.484 111.904 93.398 111.904 L 92.338 111.904 ZM 106.791 112.194 C 105.665 112.194 104.741 111.874 104.021 111.234 C 103.301 110.594 102.941 109.754 102.941 108.714 C 102.941 107.747 103.268 106.947 103.921 106.314 C 104.575 105.687 105.488 105.291 106.661 105.124 L 109.521 104.734 C 109.948 104.674 110.255 104.531 110.441 104.304 C 110.635 104.077 110.731 103.751 110.731 103.324 L 110.731 103.144 C 110.731 102.444 110.455 101.877 109.901 101.444 C 109.355 101.011 108.671 100.794 107.851 100.794 C 107.205 100.794 106.641 100.924 106.161 101.184 C 105.688 101.437 105.311 101.791 105.031 102.244 C 104.911 102.437 104.765 102.534 104.591 102.534 C 104.505 102.534 104.408 102.497 104.301 102.424 L 103.711 102.024 C 103.578 101.911 103.511 101.787 103.511 101.654 C 103.511 101.594 103.535 101.521 103.581 101.434 C 104.008 100.727 104.591 100.174 105.331 99.774 C 106.071 99.367 106.925 99.164 107.891 99.164 C 108.771 99.164 109.555 99.331 110.241 99.664 C 110.935 99.991 111.468 100.454 111.841 101.054 C 112.215 101.661 112.401 102.357 112.401 103.144 L 112.401 111.594 C 112.401 111.681 112.371 111.754 112.311 111.814 C 112.251 111.874 112.178 111.904 112.091 111.904 L 111.171 111.904 C 111.085 111.904 111.011 111.874 110.951 111.814 C 110.891 111.754 110.861 111.681 110.861 111.594 L 110.861 110.074 C 110.408 110.734 109.825 111.254 109.111 111.634 C 108.398 112.007 107.625 112.194 106.791 112.194 Z M 106.971 110.654 C 107.685 110.654 108.335 110.461 108.921 110.074 C 109.508 109.694 109.968 109.214 110.301 108.634 C 110.628 108.054 110.791 107.487 110.791 106.934 L 110.791 106.034 C 110.445 106.074 109.318 106.227 107.411 106.494 L 106.791 106.584 C 105.325 106.804 104.591 107.491 104.591 108.644 C 104.591 109.251 104.811 109.737 105.251 110.104 C 105.691 110.471 106.265 110.654 106.971 110.654 ZM 119.111 112.194 C 117.984 112.194 117.061 111.874 116.341 111.234 C 115.621 110.594 115.261 109.754 115.261 108.714 C 115.261 107.747 115.588 106.947 116.241 106.314 C 116.894 105.687 117.808 105.291 118.981 105.124 L 121.841 104.734 C 122.268 104.674 122.574 104.531 122.761 104.304 C 122.954 104.077 123.051 103.751 123.051 103.324 L 123.051 103.144 C 123.051 102.444 122.774 101.877 122.221 101.444 C 121.674 101.011 120.991 100.794 120.171 100.794 C 119.524 100.794 118.961 100.924 118.481 101.184 C 118.008 101.437 117.631 101.791 117.351 102.244 C 117.231 102.437 117.084 102.534 116.911 102.534 C 116.824 102.534 116.728 102.497 116.621 102.424 L 116.031 102.024 C 115.898 101.911 115.831 101.787 115.831 101.654 C 115.831 101.594 115.854 101.521 115.901 101.434 C 116.328 100.727 116.911 100.174 117.651 99.774 C 118.391 99.367 119.244 99.164 120.211 99.164 C 121.091 99.164 121.874 99.331 122.561 99.664 C 123.254 99.991 123.788 100.454 124.161 101.054 C 124.534 101.661 124.721 102.357 124.721 103.144 L 124.721 111.594 C 124.721 111.681 124.691 111.754 124.631 111.814 C 124.571 111.874 124.498 111.904 124.411 111.904 L 123.491 111.904 C 123.404 111.904 123.331 111.874 123.271 111.814 C 123.211 111.754 123.181 111.681 123.181 111.594 L 123.181 110.074 C 122.728 110.734 122.144 111.254 121.431 111.634 C 120.718 112.007 119.944 112.194 119.111 112.194 Z M 119.291 110.654 C 120.004 110.654 120.654 110.461 121.241 110.074 C 121.828 109.694 122.288 109.214 122.621 108.634 C 122.948 108.054 123.111 107.487 123.111 106.934 L 123.111 106.034 C 122.764 106.074 121.638 106.227 119.731 106.494 L 119.111 106.584 C 117.644 106.804 116.911 107.491 116.911 108.644 C 116.911 109.251 117.131 109.737 117.571 110.104 C 118.011 110.471 118.584 110.654 119.291 110.654 Z" transform="matrix(1, 0, 0, 1, 0, 0)" style="white-space: pre;"/>
  <path d="M 27.485 112.404 C 27.303 112.385 27.04 112.296 26.911 112.168 C 26.783 112.039 26.694 111.776 26.675 111.594 L 26.675 95.514 C 26.694 95.332 26.783 95.069 26.911 94.94 C 27.04 94.812 27.303 94.723 27.485 94.704 L 28.585 94.704 C 28.767 94.723 29.03 94.812 29.159 94.94 C 29.287 95.069 29.376 95.332 29.395 95.514 L 29.395 99.687 C 29.63 99.491 29.487 99.53 30.149 99.178 C 30.815 98.85 31.614 98.664 32.435 98.664 C 33.771 98.664 34.952 99.136 35.807 99.959 C 36.637 100.807 37.098 101.987 37.115 103.324 L 37.115 111.594 C 37.096 111.776 37.007 112.039 36.879 112.168 C 36.75 112.296 36.487 112.385 36.305 112.404 L 35.205 112.404 C 35.023 112.385 34.76 112.296 34.631 112.168 C 34.503 112.039 34.414 111.776 34.395 111.594 L 34.395 103.654 C 34.409 102.796 34.232 102.256 33.799 101.865 C 33.403 101.431 32.918 101.274 32.165 101.274 C 31.28 101.274 30.671 101.5 30.16 102.086 C 29.614 102.635 29.382 103.351 29.395 104.404 L 29.395 111.594 C 29.376 111.776 29.287 112.039 29.159 112.168 C 29.03 112.296 28.767 112.385 28.585 112.404 Z M 28.395 95.704 L 27.675 95.704 L 27.675 111.404 L 28.395 111.404 L 28.395 104.404 C 28.408 103.191 28.775 102.134 29.429 101.403 C 30.118 100.695 31.09 100.274 32.165 100.274 C 33.092 100.274 33.931 100.61 34.508 101.16 C 35.061 101.743 35.381 102.632 35.395 103.654 L 35.395 111.404 L 36.115 111.404 L 36.115 103.324 C 36.132 102.167 35.819 101.342 35.104 100.671 C 34.425 99.96 33.593 99.664 32.435 99.664 C 31.722 99.664 31.151 99.783 30.603 100.069 C 30.052 100.343 29.656 100.711 29.317 101.262 L 28.395 102.76 Z M 43.213 112.694 C 42.004 112.694 40.902 112.311 40.111 111.608 C 39.311 110.897 38.863 109.852 38.863 108.714 C 38.863 107.653 39.285 106.672 39.997 105.953 C 40.723 105.277 41.777 104.814 43.015 104.629 L 45.873 104.239 C 46.229 104.2 46.382 104.139 46.482 103.98 C 46.626 103.844 46.663 103.68 46.653 103.324 L 46.653 103.144 C 46.678 102.554 46.495 102.182 46.013 101.836 C 45.545 101.445 45.017 101.294 44.273 101.294 C 43.682 101.294 43.236 101.389 42.818 101.625 C 42.398 101.84 42.116 102.106 41.878 102.508 C 41.683 102.778 41.324 103.034 41.013 103.034 C 40.837 103.034 40.601 102.939 40.442 102.838 L 39.822 102.417 L 39.811 102.406 C 39.617 102.22 39.433 101.904 39.433 101.654 C 39.433 101.519 39.509 101.307 39.575 101.176 C 40.043 100.416 40.721 99.773 41.514 99.335 C 42.316 98.904 43.288 98.664 44.313 98.664 C 45.245 98.664 46.135 98.861 46.878 99.213 C 47.628 99.577 48.267 100.136 48.689 100.792 C 49.09 101.465 49.314 102.292 49.323 103.144 L 49.323 111.594 C 49.304 111.776 49.215 112.039 49.087 112.168 C 48.958 112.296 48.693 112.386 48.513 112.404 L 47.593 112.404 C 47.411 112.385 47.148 112.296 47.019 112.168 C 46.891 112.039 46.802 111.776 46.783 111.594 L 46.783 111.369 C 46.471 111.64 46.526 111.663 45.765 112.077 C 44.994 112.472 44.105 112.694 43.213 112.694 Z M 45.301 111.191 C 45.966 110.845 46.457 110.406 46.871 109.791 L 47.783 108.437 L 47.783 111.404 L 48.323 111.404 L 48.323 103.144 C 48.332 102.422 48.182 101.858 47.838 101.317 C 47.512 100.774 47.085 100.406 46.45 100.116 C 45.82 99.803 45.141 99.664 44.313 99.664 C 43.404 99.664 42.671 99.829 41.994 100.212 C 41.324 100.565 40.839 101.015 40.46 101.644 L 40.477 101.653 L 41.004 102.01 C 41.008 102.014 41.012 102.017 41.015 102.02 C 41.018 102.01 41.022 101.997 41.028 101.98 C 41.35 101.477 41.819 101.035 42.346 100.744 C 42.889 100.46 43.57 100.294 44.273 100.294 C 45.169 100.294 46.006 100.576 46.632 101.051 C 47.255 101.571 47.628 102.334 47.653 103.144 L 47.653 103.324 C 47.643 103.822 47.487 104.307 47.246 104.625 C 46.972 104.918 46.509 105.148 46.013 105.229 L 43.151 105.619 C 42.041 105.768 41.269 106.096 40.69 106.674 C 40.094 107.221 39.863 107.841 39.863 108.714 C 39.863 109.656 40.135 110.291 40.775 110.86 C 41.424 111.437 42.168 111.694 43.213 111.694 C 43.987 111.694 44.644 111.542 45.301 111.191 Z M 41.353 110.488 C 40.829 110.051 40.513 109.354 40.513 108.644 C 40.513 107.975 40.777 107.315 41.221 106.899 C 41.652 106.495 42.349 106.215 43.141 106.089 L 43.764 105.999 C 45.671 105.732 46.804 105.578 47.156 105.537 L 47.713 105.473 L 47.713 106.934 C 47.703 107.556 47.505 108.25 47.156 108.884 C 46.786 109.512 46.247 110.075 45.617 110.492 C 44.964 110.91 44.177 111.154 43.393 111.154 C 42.61 111.154 41.865 110.915 41.353 110.488 Z M 43.393 110.154 C 44.035 110.154 44.547 110.013 45.068 109.657 C 45.609 109.313 45.991 108.918 46.289 108.387 C 46.591 107.861 46.723 107.418 46.713 106.934 L 46.713 106.602 C 46.142 106.678 45.808 106.722 43.904 106.989 L 43.285 107.079 C 42.61 107.173 42.207 107.346 41.905 107.629 C 41.616 107.9 41.513 108.16 41.513 108.644 C 41.513 109.148 41.637 109.423 41.993 109.72 C 42.361 110.027 42.762 110.154 43.393 110.154 Z M 52.872 112.404 C 52.692 112.386 52.427 112.296 52.298 112.168 C 52.17 112.039 52.081 111.776 52.062 111.594 L 52.062 99.764 C 52.08 99.577 52.19 99.328 52.312 99.18 C 52.457 99.069 52.692 98.972 52.872 98.954 L 53.972 98.954 C 54.154 98.973 54.388 99.07 54.532 99.18 C 54.575 99.232 54.618 99.298 54.654 99.369 L 53.852 100.69 C 54.094 100.29 54.403 99.927 54.757 99.63 C 54.769 99.677 54.778 99.722 54.782 99.764 L 54.782 99.609 C 54.988 99.438 55.21 99.29 55.442 99.17 C 56.077 98.842 56.839 98.664 57.602 98.664 C 58.587 98.664 59.526 98.929 60.281 99.392 C 61.019 99.877 61.149 100.091 61.468 100.544 C 61.786 100.078 61.927 99.85 62.633 99.383 C 63.347 98.94 64.214 98.684 65.102 98.684 C 66.438 98.684 67.62 99.156 68.474 99.979 C 69.305 100.827 69.765 102.007 69.782 103.344 L 69.782 111.594 C 69.763 111.776 69.674 112.039 69.546 112.168 C 69.417 112.296 69.154 112.385 68.972 112.404 L 67.872 112.404 C 67.692 112.386 67.427 112.296 67.298 112.168 C 67.17 112.039 67.081 111.776 67.062 111.594 L 67.062 103.674 C 67.075 102.815 66.887 102.297 66.478 101.888 C 66.059 101.468 65.589 101.294 64.842 101.294 C 64.029 101.294 63.478 101.511 62.999 102.092 C 62.488 102.651 62.27 103.372 62.282 104.424 L 62.282 111.594 C 62.263 111.776 62.174 112.039 62.046 112.168 C 61.917 112.296 61.654 112.385 61.472 112.404 L 60.372 112.404 C 60.192 112.386 59.927 112.296 59.798 112.168 C 59.67 112.039 59.581 111.776 59.562 111.594 L 59.562 103.654 C 59.576 102.796 59.399 102.256 58.966 101.865 C 58.571 101.431 58.085 101.274 57.332 101.274 C 56.526 101.274 55.977 101.491 55.498 102.073 C 54.988 102.624 54.77 103.346 54.782 104.404 L 54.782 111.594 C 54.763 111.776 54.674 112.039 54.546 112.168 C 54.417 112.296 54.154 112.385 53.972 112.404 Z M 53.782 99.954 L 53.062 99.954 L 53.062 111.404 L 53.782 111.404 L 53.782 104.404 C 53.794 103.196 54.135 102.144 54.746 101.415 C 55.4 100.704 56.326 100.274 57.332 100.274 C 58.259 100.274 59.099 100.61 59.675 101.16 C 60.229 101.744 60.548 102.632 60.562 103.654 L 60.562 111.404 L 61.282 111.404 L 61.282 104.424 C 61.287 103.919 61.35 103.441 61.467 103.001 L 61.007 101.767 C 60.753 101.087 60.366 100.618 59.744 100.236 C 59.127 99.834 58.457 99.664 57.602 99.664 C 56.953 99.664 56.427 99.786 55.902 100.058 C 55.384 100.326 55.017 100.665 54.712 101.198 L 53.782 102.828 Z M 61.815 102.089 C 61.938 101.852 62.081 101.633 62.244 101.437 C 62.899 100.725 63.829 100.294 64.842 100.294 C 65.763 100.294 66.619 100.614 67.186 101.18 C 67.751 101.745 68.049 102.653 68.062 103.674 L 68.062 111.404 L 68.782 111.404 L 68.782 103.344 C 68.799 102.187 68.488 101.362 67.772 100.691 C 67.094 99.981 66.26 99.684 65.102 99.684 C 64.35 99.684 63.751 99.842 63.171 100.225 C 62.585 100.584 62.206 101.06 61.937 101.769 Z M 76.012 112.624 C 75.306 112.624 74.577 112.525 73.898 112.346 C 73.269 112.167 72.682 111.904 72.197 111.586 L 72.121 111.532 C 71.986 111.436 71.81 111.244 71.763 111.087 C 71.72 110.942 71.741 110.71 71.783 110.561 L 71.787 110.545 L 71.805 110.51 L 72.285 109.554 C 72.44 109.351 72.751 109.134 73.002 109.134 C 73.102 109.134 73.246 109.178 73.349 109.216 L 73.392 109.232 L 73.43 109.256 C 74.346 109.817 75.194 110.064 76.102 110.064 C 76.814 110.064 77.263 109.938 77.635 109.649 C 77.991 109.373 78.112 109.107 78.112 108.584 C 78.112 108.28 78.08 108.125 77.924 107.96 C 77.765 107.759 77.591 107.636 77.316 107.505 C 77.008 107.358 76.521 107.156 75.835 106.892 C 74.927 106.553 74.189 106.223 73.654 105.918 C 73.091 105.597 72.605 105.132 72.272 104.625 C 71.947 104.098 71.752 103.386 71.752 102.624 C 71.752 101.392 72.223 100.311 73.063 99.651 C 73.881 99.008 75.006 98.664 76.252 98.664 C 76.908 98.664 77.591 98.767 78.232 98.954 C 78.873 99.14 79.452 99.397 79.973 99.736 C 80.119 99.847 80.303 100.072 80.334 100.246 C 80.359 100.384 80.319 100.613 80.271 100.754 L 79.85 101.611 C 79.758 101.788 79.56 101.979 79.389 102.069 C 79.175 102.113 78.896 102.095 78.706 101.994 C 77.82 101.458 77.045 101.224 76.252 101.224 C 75.607 101.224 75.199 101.32 74.876 101.591 C 74.552 101.802 74.472 102.049 74.472 102.534 C 74.472 102.915 74.532 103.117 74.695 103.325 C 74.88 103.56 75.036 103.697 75.291 103.805 C 75.59 103.935 76.067 104.124 76.734 104.374 C 77.614 104.686 78.322 104.983 78.843 105.26 C 79.39 105.552 79.892 105.973 80.246 106.46 C 80.618 106.97 80.822 107.7 80.822 108.474 C 80.822 109.701 80.32 110.784 79.471 111.529 C 78.599 112.228 77.394 112.624 76.012 112.624 Z M 78.832 110.76 C 79.543 110.199 79.822 109.501 79.822 108.474 C 79.822 107.834 79.706 107.418 79.438 107.048 C 79.152 106.655 78.834 106.376 78.381 106.148 C 77.903 105.891 77.249 105.617 76.395 105.315 C 75.718 105.061 75.208 104.859 74.893 104.723 C 74.534 104.551 74.164 104.268 73.909 103.943 C 73.632 103.591 73.472 103.059 73.472 102.534 C 73.472 101.845 73.792 101.201 74.267 100.797 C 74.759 100.442 75.472 100.224 76.252 100.224 C 77.133 100.224 78.093 100.51 79.027 101.026 L 79.29 100.485 C 78.888 100.244 78.444 100.052 77.955 99.915 C 77.383 99.743 76.836 99.664 76.252 99.664 C 75.152 99.664 74.357 99.906 73.681 100.437 C 73.027 100.951 72.752 101.59 72.752 102.624 C 72.752 103.262 72.851 103.704 73.112 104.082 C 73.365 104.494 73.687 104.785 74.15 105.05 C 74.641 105.331 75.308 105.628 76.187 105.956 C 76.885 106.225 77.416 106.444 77.748 106.603 C 78.113 106.778 78.455 107.045 78.696 107.324 C 78.94 107.652 79.112 108.128 79.112 108.584 C 79.112 109.315 78.787 110.021 78.249 110.439 C 77.727 110.844 76.95 111.064 76.102 111.064 C 75.105 111.064 74.058 110.759 73.074 110.205 L 72.787 110.781 C 73.18 111.041 73.618 111.232 74.162 111.381 C 74.777 111.548 75.372 111.624 76.012 111.624 C 77.244 111.624 78.13 111.367 78.832 110.76 Z M 85.302 98.234 C 85.115 98.216 84.881 98.113 84.731 97.995 C 84.613 97.845 84.51 97.611 84.492 97.424 L 84.492 95.514 C 84.511 95.332 84.608 95.098 84.718 94.954 C 84.866 94.832 85.115 94.722 85.302 94.704 L 86.352 94.704 C 86.534 94.723 86.797 94.812 86.926 94.94 C 87.054 95.069 87.143 95.332 87.162 95.514 L 87.162 97.424 C 87.144 97.611 87.034 97.86 86.912 98.008 C 86.768 98.118 86.534 98.215 86.352 98.234 Z M 86.162 97.234 L 86.162 95.704 L 85.492 95.704 L 85.492 97.234 Z M 85.762 112.404 C 85.447 112.385 85.069 112.249 84.848 112.028 C 84.627 111.807 84.491 111.429 84.472 111.114 L 84.472 101.584 L 82.682 101.584 C 82.5 101.565 82.237 101.476 82.108 101.348 C 81.98 101.219 81.891 100.956 81.872 100.774 L 81.872 99.764 C 81.89 99.577 82 99.328 82.122 99.18 C 82.266 99.07 82.5 98.973 82.682 98.954 L 85.892 98.954 C 86.207 98.973 86.585 99.109 86.806 99.33 C 87.027 99.551 87.163 99.929 87.182 100.244 L 87.182 109.774 L 88.952 109.774 C 89.134 109.793 89.397 109.882 89.526 110.01 C 89.654 110.139 89.743 110.402 89.762 110.584 L 89.762 111.594 C 89.743 111.776 89.654 112.039 89.526 112.168 C 89.397 112.296 89.134 112.385 88.952 112.404 Z M 88.762 111.404 L 88.762 110.774 L 86.182 110.774 L 86.182 100.244 C 86.201 100.119 86.183 100.123 86.098 100.038 C 86.013 99.953 86.017 99.935 85.892 99.954 L 82.872 99.954 L 82.872 100.584 L 85.472 100.584 L 85.472 111.114 C 85.453 111.239 85.471 111.235 85.556 111.32 C 85.641 111.405 85.637 111.423 85.762 111.404 Z M 92.338 112.404 C 92.168 112.39 91.954 112.315 91.813 112.226 C 91.666 112.079 91.532 111.814 91.508 111.614 L 91.508 95.514 C 91.527 95.332 91.616 95.069 91.744 94.94 C 91.873 94.812 92.136 94.723 92.318 94.704 L 93.418 94.704 C 93.598 94.722 93.863 94.812 93.992 94.94 C 94.12 95.069 94.209 95.332 94.228 95.514 L 94.228 103.794 L 94.411 103.794 L 98.587 99.319 C 98.775 99.133 99.087 98.983 99.338 98.954 L 100.768 98.954 C 100.935 98.968 101.197 99.046 101.322 99.17 C 101.441 99.29 101.548 99.544 101.548 99.714 C 101.548 99.896 101.434 100.138 101.32 100.279 L 96.742 105.073 L 101.644 111.187 C 101.713 111.306 101.788 111.505 101.788 111.644 C 101.788 111.796 101.689 112.026 101.602 112.156 C 101.461 112.275 101.207 112.386 101.028 112.404 L 99.598 112.404 C 99.344 112.374 99.021 112.206 98.837 112.015 L 94.387 106.424 L 94.228 106.424 L 94.228 111.614 C 94.203 111.816 94.068 112.082 93.924 112.225 C 93.784 112.314 93.567 112.39 93.398 112.404 Z M 93.228 95.704 L 92.508 95.704 L 92.508 111.404 L 93.228 111.404 L 93.228 105.424 L 94.869 105.424 L 99.619 111.393 C 99.622 111.397 99.624 111.401 99.626 111.404 L 100.541 111.404 L 95.688 105.357 L 95.414 105.015 L 100.248 99.954 L 99.348 99.954 C 99.345 99.963 99.339 99.974 99.329 99.989 L 94.994 104.635 L 94.845 104.794 L 93.228 104.794 Z M 106.791 112.694 C 105.583 112.694 104.48 112.311 103.689 111.608 C 102.889 110.897 102.441 109.852 102.441 108.714 C 102.441 107.652 102.865 106.671 103.575 105.953 C 104.303 105.277 105.356 104.814 106.593 104.629 L 109.451 104.239 C 109.808 104.2 109.963 104.138 110.061 103.979 C 110.205 103.844 110.241 103.68 110.231 103.324 L 110.231 103.144 C 110.256 102.553 110.073 102.181 109.59 101.836 C 109.124 101.445 108.595 101.294 107.851 101.294 C 107.261 101.294 106.814 101.389 106.397 101.625 C 105.977 101.84 105.694 102.106 105.456 102.508 C 105.262 102.777 104.903 103.034 104.591 103.034 C 104.416 103.034 104.179 102.938 104.02 102.838 L 103.4 102.417 L 103.387 102.405 C 103.196 102.22 103.011 101.906 103.011 101.654 C 103.011 101.516 103.091 101.301 103.153 101.175 C 103.622 100.416 104.299 99.774 105.092 99.335 C 105.894 98.904 106.867 98.664 107.891 98.664 C 108.823 98.664 109.714 98.861 110.456 99.213 C 111.207 99.577 111.845 100.135 112.267 100.792 C 112.669 101.465 112.893 102.292 112.901 103.144 L 112.901 111.594 C 112.882 111.776 112.793 112.039 112.665 112.168 C 112.536 112.296 112.273 112.385 112.091 112.404 L 111.171 112.404 C 110.991 112.386 110.726 112.296 110.597 112.168 C 110.469 112.039 110.38 111.776 110.361 111.594 L 110.361 111.369 C 110.049 111.641 110.106 111.663 109.343 112.077 C 108.573 112.471 107.684 112.694 106.791 112.694 Z M 108.878 111.192 C 109.542 110.846 110.035 110.406 110.449 109.791 L 111.361 108.434 L 111.361 111.404 L 111.901 111.404 L 111.901 103.144 C 111.909 102.422 111.761 101.858 111.416 101.317 C 111.091 100.774 110.664 100.406 110.028 100.116 C 109.399 99.803 108.719 99.664 107.891 99.664 C 106.983 99.664 106.249 99.829 105.572 100.212 C 104.902 100.565 104.418 101.015 104.038 101.645 L 104.063 101.658 L 104.582 102.01 C 104.586 102.014 104.59 102.017 104.593 102.02 C 104.596 102.01 104.6 101.997 104.606 101.98 C 104.928 101.477 105.398 101.035 105.924 100.744 C 106.467 100.46 107.149 100.294 107.851 100.294 C 108.747 100.294 109.584 100.576 110.21 101.051 C 110.834 101.571 111.206 102.335 111.231 103.144 L 111.231 103.324 C 111.221 103.822 111.066 104.306 110.824 104.624 C 110.55 104.918 110.088 105.148 109.591 105.229 L 106.729 105.619 C 105.62 105.768 104.849 106.096 104.268 106.674 C 103.673 107.222 103.441 107.842 103.441 108.714 C 103.441 109.656 103.713 110.291 104.353 110.86 C 105.002 111.437 105.747 111.694 106.791 111.694 C 107.566 111.694 108.222 111.543 108.878 111.192 Z M 104.931 110.488 C 104.407 110.051 104.091 109.354 104.091 108.644 C 104.091 107.975 104.355 107.315 104.8 106.899 C 105.231 106.495 105.928 106.215 106.719 106.089 L 107.342 105.999 C 109.25 105.732 110.383 105.578 110.734 105.537 L 111.291 105.473 L 111.291 106.934 C 111.281 107.556 111.084 108.249 110.735 108.883 C 110.365 109.511 109.826 110.075 109.195 110.492 C 108.543 110.91 107.756 111.154 106.971 111.154 C 106.189 111.154 105.443 110.915 104.931 110.488 Z M 106.971 110.154 C 107.614 110.154 108.126 110.013 108.645 109.657 C 109.188 109.314 109.57 108.918 109.866 108.387 C 110.17 107.861 110.301 107.418 110.291 106.934 L 110.291 106.602 C 109.72 106.678 109.387 106.722 107.482 106.989 L 106.863 107.079 C 106.188 107.173 105.785 107.346 105.483 107.629 C 105.194 107.9 105.091 108.16 105.091 108.644 C 105.091 109.148 105.215 109.423 105.571 109.72 C 105.939 110.027 106.341 110.154 106.971 110.154 Z M 119.111 112.694 C 117.902 112.694 116.8 112.311 116.009 111.608 C 115.209 110.897 114.761 109.852 114.761 108.714 C 114.761 107.652 115.184 106.671 115.895 105.953 C 116.621 105.277 117.676 104.814 118.913 104.629 L 121.771 104.239 C 122.127 104.2 122.28 104.14 122.38 103.98 C 122.524 103.844 122.561 103.68 122.551 103.324 L 122.551 103.144 C 122.576 102.554 122.393 102.182 121.911 101.836 C 121.443 101.445 120.915 101.294 120.171 101.294 C 119.58 101.294 119.134 101.389 118.717 101.625 C 118.297 101.84 118.014 102.106 117.776 102.508 C 117.581 102.778 117.222 103.034 116.911 103.034 C 116.734 103.034 116.498 102.938 116.34 102.838 L 115.72 102.417 L 115.707 102.405 C 115.516 102.22 115.331 101.906 115.331 101.654 C 115.331 101.519 115.408 101.306 115.473 101.176 C 115.942 100.416 116.619 99.774 117.412 99.335 C 118.214 98.904 119.186 98.664 120.211 98.664 C 121.143 98.664 122.033 98.861 122.776 99.213 C 123.525 99.577 124.165 100.135 124.587 100.792 C 124.988 101.465 125.212 102.292 125.221 103.144 L 125.221 111.594 C 125.202 111.776 125.113 112.039 124.985 112.168 C 124.856 112.296 124.593 112.385 124.411 112.404 L 123.491 112.404 C 123.309 112.385 123.046 112.296 122.917 112.168 C 122.789 112.039 122.7 111.776 122.681 111.594 L 122.681 111.369 C 122.369 111.64 122.424 111.663 121.663 112.077 C 120.893 112.472 120.003 112.694 119.111 112.694 Z M 121.198 111.192 C 121.861 110.846 122.356 110.406 122.769 109.791 L 123.681 108.434 L 123.681 111.404 L 124.221 111.404 L 124.221 103.144 C 124.23 102.422 124.08 101.858 123.736 101.317 C 123.411 100.774 122.984 100.406 122.348 100.116 C 121.718 99.803 121.039 99.664 120.211 99.664 C 119.302 99.664 118.569 99.829 117.892 100.212 C 117.222 100.565 116.738 101.015 116.358 101.645 L 116.383 101.658 L 116.902 102.01 C 116.906 102.014 116.91 102.017 116.913 102.02 C 116.916 102.01 116.92 101.997 116.926 101.98 C 117.248 101.477 117.718 101.035 118.244 100.744 C 118.787 100.46 119.468 100.294 120.171 100.294 C 121.067 100.294 121.904 100.576 122.53 101.051 C 123.153 101.571 123.526 102.334 123.551 103.144 L 123.551 103.324 C 123.541 103.822 123.387 104.307 123.144 104.625 C 122.87 104.918 122.409 105.148 121.911 105.229 L 119.049 105.619 C 117.94 105.768 117.168 106.096 116.588 106.674 C 115.993 107.222 115.761 107.842 115.761 108.714 C 115.761 109.656 116.033 110.291 116.673 110.86 C 117.322 111.437 118.066 111.694 119.111 111.694 C 119.885 111.694 120.542 111.543 121.198 111.192 Z M 117.251 110.488 C 116.727 110.051 116.411 109.354 116.411 108.644 C 116.411 107.975 116.675 107.315 117.119 106.899 C 117.55 106.495 118.247 106.215 119.039 106.089 L 119.662 105.999 C 121.57 105.732 122.702 105.578 123.054 105.537 L 123.611 105.473 L 123.611 106.934 C 123.601 107.556 123.404 108.249 123.055 108.883 C 122.685 109.511 122.146 110.075 121.515 110.492 C 120.862 110.91 120.075 111.154 119.291 111.154 C 118.508 111.154 117.763 110.915 117.251 110.488 Z M 119.291 110.154 C 119.933 110.154 120.445 110.013 120.966 109.657 C 121.508 109.313 121.89 108.917 122.186 108.387 C 122.49 107.861 122.621 107.418 122.611 106.934 L 122.611 106.602 C 122.04 106.678 121.707 106.722 119.802 106.989 L 119.183 107.079 C 118.508 107.173 118.105 107.346 117.803 107.629 C 117.514 107.9 117.411 108.16 117.411 108.644 C 117.411 109.148 117.535 109.423 117.891 109.72 C 118.259 110.027 118.66 110.154 119.291 110.154 Z" style="fill: none;" transform="matrix(1, 0, 0, 1, 0, 0)"/>
</svg>